<svg preserveAspectRatio="none" width="100%" height="100%" overflow="visible" style="display: block;" viewBox="0 0 16 16" fill="none" xmlns="http://www.w3.org/2000/svg">
<g id="fluent:ios-arrow-24-filled">
<path id="Vector" d="M9.31171 2.12483C9.37186 2.06119 9.41888 1.98631 9.45009 1.9045C9.4813 1.82268 9.49609 1.73551 9.49361 1.64798C9.49113 1.56044 9.47144 1.47425 9.43566 1.39433C9.39987 1.3144 9.34869 1.24231 9.28505 1.18217C9.2214 1.12202 9.14653 1.075 9.06471 1.04379C8.98289 1.01258 8.89572 0.99779 8.80819 1.00027C8.72065 1.00274 8.63446 1.02244 8.55454 1.05822C8.47462 1.09401 8.40252 1.14519 8.34238 1.20883L2.67571 7.20883C2.55869 7.33261 2.49348 7.49649 2.49348 7.66683C2.49348 7.83717 2.55869 8.00105 2.67571 8.12483L8.34238 14.1255C8.40213 14.1905 8.4742 14.2431 8.55442 14.28C8.63464 14.317 8.7214 14.3376 8.80966 14.3407C8.89792 14.3439 8.98593 14.3294 9.06857 14.2983C9.15121 14.2671 9.22683 14.2198 9.29104 14.1592C9.35526 14.0986 9.40678 14.0258 9.44263 13.9451C9.47847 13.8643 9.49792 13.7773 9.49984 13.689C9.50176 13.6007 9.48612 13.5129 9.45383 13.4307C9.42153 13.3485 9.37322 13.2735 9.31171 13.2102L4.07704 7.66683L9.31171 2.12483Z" fill="var(--fill-0, black)"/>
</g>
</svg>
