<svg preserveAspectRatio="none" width="100%" height="100%" overflow="visible" style="display: block;" viewBox="0 0 16 16" fill="none" xmlns="http://www.w3.org/2000/svg">
<path id="Vector" d="M7.91667 15.8333C6.82153 15.8333 5.79236 15.6254 4.82917 15.2095C3.86597 14.7936 3.02813 14.2297 2.31563 13.5177C1.60313 12.8057 1.0392 11.9679 0.623834 11.0042C0.208473 10.0404 0.00052878 9.01128 1.00211e-06 7.91667C-0.000526776 6.82206 0.207418 5.79289 0.623834 4.82917C1.04025 3.86544 1.60418 3.0276 2.31563 2.31563C3.02707 1.60365 3.86492 1.03972 4.82917 0.623833C5.79342 0.207945 6.82258 0 7.91667 0C9.01075 0 10.0399 0.207945 11.0042 0.623833C11.9684 1.03972 12.8063 1.60365 13.5177 2.31563C14.2292 3.0276 14.7933 3.86544 15.2103 4.82917C15.6272 5.79289 15.8349 6.82206 15.8333 7.91667C15.8318 9.01128 15.6238 10.0404 15.2095 11.0042C14.7952 11.9679 14.2313 12.8057 13.5177 13.5177C12.8042 14.2297 11.9663 14.7939 11.0042 15.2103C10.042 15.6267 9.01286 15.8344 7.91667 15.8333Z" fill="var(--fill-0, white)"/>
</svg>
