<svg width="25" height="25" viewBox="0 0 25 25" fill="none" xmlns="http://www.w3.org/2000/svg">
<path d="M4 2.5V8.5H2V2.5H4ZM2 22.5H4V16.5H2V22.5ZM5 12.5C5 12.1044 4.8827 11.7178 4.66294 11.3889C4.44318 11.06 4.13082 10.8036 3.76537 10.6522C3.39992 10.5009 2.99778 10.4613 2.60982 10.5384C2.22186 10.6156 1.86549 10.8061 1.58579 11.0858C1.30608 11.3655 1.1156 11.7219 1.03843 12.1098C0.96126 12.4978 1.00087 12.8999 1.15224 13.2654C1.30362 13.6308 1.55996 13.9432 1.88886 14.1629C2.21776 14.3827 2.60444 14.5 3 14.5C4.11 14.5 5 13.61 5 12.5ZM24 6.5V18.5C24 19.61 23.11 20.5 22 20.5H10C9.46957 20.5 8.96086 20.2893 8.58579 19.9142C8.21071 19.5391 8 19.0304 8 18.5V14.5L6 12.5L8 10.5V6.5C8 5.96957 8.21071 5.46086 8.58579 5.08579C8.96086 4.71071 9.46957 4.5 10 4.5H22C23.11 4.5 24 5.39 24 6.5ZM19 13.5H11V15.5H19V13.5ZM21 9.5H11V11.5H21V9.5Z" fill="#CAC3C0"/>
</svg>
